<svg id="Calque_1" xmlns="http://www.w3.org/2000/svg" viewBox="-194 390.9 206 60">
                            <style>.st0{fill:#ffffff}.st1{fill:#ffffff}</style>
                            <path class="st0" d="M-150.1 446.7c0 .4-.4.6-.7.6-.3 0-.5-.3-.6-.6v-8.3c0-.4.4-.6.7-.6.3 0 .5.3.6.6v8.3zM-166.1 393.3s-39.8 14.3-6.6 28.6c0 0-39.6-14.1 6.6-28.6"></path><path class="st0" d="M-175.5 397.2c-8.3 3.6-12.5 7.3-12.5 11.2 0 2.5 1.7 4.8 4 6.8-1.5-1.5-2.3-3.6-2.3-5.7.1-5 5.6-9.3 10.8-12.3m2.8 25.2h-.1c-.7-.2-16.3-5.9-16.1-13.9.1-5.6 7.7-10.8 22.7-15.5.2-.1.5.1.6.3.1.2-.1.4-.3.5-.2.1-19.2 7-19.5 15.7-.1 4.2 4.2 8.3 12.9 12 .2 0 .4.2.4.4-.1.2-.3.4-.6.5.1 0 .1 0 0 0z"></path><path class="st0" d="M-185.6 447.4s40.3-13.3 6.9-28.2c0 .1 39.8 15-6.9 28.2"></path><path class="st0" d="M-167.3 426.2c1.5 1.5 2.3 3.6 2.3 5.8-.2 4.9-5.8 9-11.1 11.8 8.3-3.3 12.6-6.9 12.8-10.7.1-2.5-1.6-4.9-4-6.9m-18.3 21.7c-.2 0-.4-.1-.4-.3-.1-.2 0-.5.3-.5.2-.1 19.4-6.5 19.8-15.1.2-4.2-4.1-8.3-13-12.3-.2-.1-.3-.4-.2-.6.1-.2.3-.3.5-.2.7.3 16.4 6.3 16.1 14.3-.2 5.5-8 10.5-23.1 14.7.1 0 0 0 0 0M-109.9 416.5c0 2.2-.6 3.1-2.8 3.1h-11.9v-7.3c0-2 1-3.1 3.6-3.1h8.3c2.2 0 2.9.9 2.8 3.1v4.2zm3.5-10.7h-28.9v26.6h10.7V423h18.3c4.5 0 7.1-1 7.1-5.4v-6.4c-.1-4.4-2.7-5.4-7.2-5.4M-151.2 405.8h10.7v26.6h-10.7zM-62.3 426.9c0 3-.9 5.5-7 5.5h-24.3V429h18.1c1.3.1 2.4-.9 2.5-2.1v-3.3c0-2-.9-2.9-2.7-2.9h-14.1c-4.8 0-6.2-2.3-6.2-5.2v-4.9c0-2.9 2.3-4.8 6.2-4.8h23.5s-.3 3.4-4.5 3.4h-11.8c-2.2 0-2.8 1.3-2.8 2.7v2.5c0 1.6.6 2.8 2.6 2.8H-69c5.3 0 6.7 2.1 6.7 5.9v3.8zM-59 432.4v-26.6h29.1v3.5h-15.6c-1.8 0-2.8.7-2.8 2.8v5.2H-33s-.3 3.4-4.5 3.4h-10.8v5.5c0 2.1 1 2.8 2.7 2.8h15.7v3.4H-59zM.9 432.4c-2.5 0-4.4-1-6.3-3.2l-16-18.3h-.1v21.5h-4.9v-26.6h9.8c1.8-.1 3.6.6 4.9 2 1.3 1.6 16.6 19.1 16.6 19.1H5v-21.1h4.9v26.6h-9zM-148.3 440.8c0-.4.3-.6.7-.6.4 0 .6.3.6.6v.3c.5-.6 1.3-1 2.2-.9 1.4-.1 2.6 1 2.7 2.4v4.2c0 .4-.4.6-.7.6-.3 0-.5-.3-.6-.6V443c-.1-1-1-1.7-2-1.6-.8.1-1.5.8-1.6 1.6v3.8c0 .4-.3.6-.7.6-.4 0-.6-.3-.6-.6v-6zM-140.3 440.8c0-.4.4-.6.7-.6.3 0 .5.3.6.6v.3c.5-.6 1.3-1 2.2-.9 1.4-.1 2.6 1 2.7 2.4v4.2c0 .4-.3.6-.7.6-.4 0-.6-.3-.6-.6V443c-.2-1-1.1-1.6-2.1-1.5-.7.1-1.3.7-1.5 1.5v3.8c0 .4-.4.6-.7.6-.3 0-.5-.3-.6-.6v-6zM-129.2 446.3c1.6 0 2.1-1.4 2.1-2.6 0-1.2-.6-2.6-2.1-2.6-1.6 0-2.1 1.4-2.1 2.6-.1 1.2.5 2.6 2.1 2.6m0-6.2c2-.1 3.7 1.4 3.8 3.4.1 2-1.4 3.7-3.4 3.8-2 .1-3.7-1.4-3.8-3.4v-.2c-.1-1.9 1.3-3.5 3.2-3.6h.2M-125 441.2c-.1-.1-.1-.3-.1-.5 0-.3.3-.5.6-.5s.6.2.7.4l1.8 4.9 1.8-4.9c.1-.3.4-.5.7-.4.3 0 .6.2.6.5 0 .2-.1.3-.1.5l-2.2 5.7c-.1.3-.3.5-.7.5s-.6-.2-.7-.5l-2.4-5.7zM-114.9 446.3c1.6 0 2.1-1.4 2.1-2.6 0-1.2-.6-2.6-2.1-2.6s-2.2 1.4-2.2 2.6c0 1.2.6 2.6 2.2 2.6m3.4.5c0 .3-.3.6-.6.6s-.6-.2-.6-.5v-.6c-.5.7-1.3 1.1-2.1 1.1-2-.1-3.5-1.8-3.4-3.8.1-1.8 1.6-3.3 3.4-3.4.8 0 1.6.3 2.1 1v-.4c0-.3.3-.6.6-.6s.6.2.6.6v6zM-109.4 438.7c0-.4.3-.6.6-.6.4 0 .6.3.6.6v1.5h.5c.4 0 .7.2.7.5s-.2.5-.7.5h-.5v5.5c0 .4-.3.6-.6.6-.4 0-.6-.3-.6-.6v-5.5h-.5c-.4 0-.7-.2-.7-.5s.2-.5.7-.5h.5v-1.5zM-104.6 446.7c0 .3-.2.6-.6.6h-.1c-.3 0-.6-.2-.6-.5v-6.1c0-.3.2-.6.6-.6h.1c.3 0 .6.2.6.5v6.1zm-.6-9c.4 0 .8.2.8.6 0 .4-.2.8-.6.8h-.2c-.4 0-.8-.2-.8-.6 0-.4.2-.8.6-.8h.2M-99.7 446.3c1.6 0 2.1-1.4 2.1-2.6 0-1.2-.6-2.6-2.1-2.6s-2.1 1.4-2.1 2.6c-.1 1.2.5 2.6 2.1 2.6m0-6.2c2-.1 3.7 1.4 3.8 3.4.1 2-1.4 3.7-3.4 3.8-2 .1-3.7-1.4-3.8-3.4v-.2c-.1-1.9 1.3-3.5 3.2-3.6h.2M-94.8 440.8c0-.3.2-.6.6-.6h.1c.3 0 .6.2.6.5v.4c.5-.6 1.3-1 2.2-.9 1.4-.1 2.6 1 2.7 2.4v4.2c0 .4-.3.6-.6.6-.4 0-.6-.3-.6-.6V443c0-1-.8-1.8-1.8-1.8s-1.8.8-1.8 1.8v3.8c0 .3-.2.6-.5.6h-.1c-.3 0-.6-.2-.6-.5v-.1l-.2-6zM-81.4 446.7c0 .4-.4.6-.7.6-.3 0-.5-.3-.6-.6v-5.5h-.5c-.4 0-.7-.2-.7-.5s.2-.5.7-.5h.5v-1.7c0-.8.7-1.5 1.5-1.5H-80.6c.3 0 .7.2.7.5s-.2.5-.7.5h-.3c-.4 0-.5.2-.5.5v1.7h.8c.4 0 .7.2.7.5s-.2.5-.7.5h-.8v5.5zM-76.1 446.3c1.6 0 2.2-1.4 2.2-2.6 0-1.2-.6-2.6-2.2-2.6s-2.1 1.4-2.1 2.6c-.1 1.2.5 2.6 2.1 2.6m0-6.2c2-.1 3.7 1.4 3.8 3.4.1 2-1.4 3.7-3.4 3.8-2 .1-3.7-1.4-3.8-3.4v-.2c-.1-1.9 1.3-3.5 3.2-3.6h.2M-71.3 440.8c0-.4.3-.6.6-.6.4 0 .6.3.6.6v.6c.3-.7 1-1.1 1.8-1.2.3 0 .7.2.7.5v.1c0 .3-.3.5-.8.6-1 .1-1.8 1-1.7 2v3.4c0 .4-.3.6-.6.6-.4 0-.6-.3-.6-.6v-6zM-59.4 446.3c1.6 0 2.1-1.4 2.1-2.6 0-1.2-.6-2.6-2.1-2.6s-2.1 1.4-2.1 2.6c-.1 1.2.5 2.6 2.1 2.6m-3.4-5.5c0-.3.2-.6.6-.6h.1c.3 0 .6.2.6.5v.4c.5-.7 1.3-1.1 2.1-1 2 .2 3.5 1.9 3.3 3.9-.2 1.7-1.5 3.1-3.3 3.3-.8 0-1.6-.4-2.1-1v3.1c0 .3-.2.6-.5.6h-.1c-.3 0-.6-.2-.6-.5v-8.7zM-51.5 446.3c1.6 0 2.1-1.4 2.1-2.6 0-1.2-.6-2.6-2.1-2.6s-2.1 1.4-2.1 2.6c0 1.2.5 2.6 2.1 2.6m3.4.5c0 .3-.3.6-.6.6s-.6-.2-.6-.5v-.5c-.5.7-1.3 1.1-2.1 1.1-2-.1-3.5-1.8-3.4-3.8.1-1.8 1.6-3.3 3.4-3.4.8 0 1.6.3 2.1 1v-.4c0-.3.3-.6.6-.6s.6.2.6.6v5.9zM-45.9 438.7c0-.4.4-.6.7-.6.3 0 .5.3.6.6v1.5h.5c.4 0 .6.2.6.5s-.2.5-.6.5h-.5v5.5c0 .4-.4.6-.7.6-.3 0-.5-.3-.6-.6v-5.5h-.5c-.4 0-.6-.2-.6-.5s.2-.5.6-.5h.5v-1.5zM-41.1 446.7c0 .4-.3.6-.7.6-.4 0-.6-.3-.6-.6v-6c0-.4.3-.6.6-.6.4 0 .7.3.7.6v6zm-.7-9c.4 0 .7.4.7.8s-.4.7-.8.7-.7-.3-.7-.7c0-.5.4-.8.8-.8M-34.3 443.3c.1-1.2-.8-2.2-2-2.3s-2.2.8-2.3 2v.3h4.3zm-4.2.9c0 1.2.9 2.1 2.1 2.1h.2c1.7 0 2.2-.9 2.6-.9.3 0 .5.2.5.5 0 .6-1.6 1.5-3.1 1.5-1.9.1-3.5-1.3-3.6-3.1v-.5c-.1-1.9 1.4-3.5 3.3-3.6h.2c1.9 0 3.3 1.5 3.3 3.4v.1c0 .4-.2.6-.7.6l-4.8-.1zM-31.6 440.8c0-.4.3-.6.6-.6.4 0 .6.3.6.6v.3c.5-.6 1.3-1 2.2-.9 1.4-.1 2.6 1 2.7 2.4v4.2c0 .3-.2.6-.5.6h-.1c-.3 0-.6-.2-.6-.5V443c0-1-.8-1.8-1.8-1.8s-1.8.8-1.8 1.8v3.8c0 .4-.3.6-.6.6-.4 0-.6-.3-.6-.6l-.1-6zM-23.3 438.7c0-.3.2-.6.6-.6h.1c.3 0 .6.2.6.5v1.6h.5c.4 0 .6.2.6.5s-.2.5-.6.5h-.5v5.5c0 .3-.2.6-.5.6h-.1c-.3 0-.6-.2-.6-.5v-5.6h-.5c-.4 0-.6-.2-.6-.5s.2-.5.6-.5h.5l-.1-1.5zM-12.9 440.1c1.3 0 2.1.4 2.1.9 0 .3-.3.5-.5.5-.5 0-.7-.4-1.6-.4-1.4.2-2.4 1.5-2.2 3 .2 1.2 1.1 2.1 2.2 2.2.9 0 1.1-.4 1.6-.4.2 0 .5.1.5.4v.1c0 .4-.7.9-2.1.9-2-.1-3.5-1.8-3.4-3.8.1-1.8 1.6-3.3 3.4-3.4M-6.3 446.3c1.6 0 2.1-1.4 2.1-2.6 0-1.2-.6-2.6-2.1-2.6s-2.1 1.4-2.1 2.6c-.1 1.2.5 2.6 2.1 2.6m3.3.5c0 .3-.3.6-.6.6s-.6-.2-.6-.5v-.5c-.5.7-1.3 1.1-2.1 1.1-2-.1-3.5-1.8-3.4-3.8.1-1.8 1.6-3.3 3.4-3.4.8 0 1.6.3 2.1 1v-.4c0-.3.3-.6.6-.6s.6.2.6.5v6zM-1.2 440.8c0-.4.3-.6.7-.6.4 0 .6.3.6.6v.6c.3-.7 1-1.1 1.8-1.2.4 0 .7.2.7.6 0 .3-.3.5-.8.6-1 .1-1.8 1-1.7 2v3.4c0 .4-.3.6-.6.6-.4 0-.7-.3-.7-.6v-6zM8.6 443.3c.1-1.2-.8-2.2-2-2.3s-2.2.8-2.3 2v.3h4.3zm-4.3.9c0 1.2.9 2.1 2.1 2.1h.2c1.7 0 2.2-.9 2.6-.9.3 0 .5.2.5.5 0 .6-1.6 1.5-3.1 1.5-1.8.1-3.5-1.2-3.6-3.1v-.5c-.1-1.9 1.4-3.5 3.3-3.6h.2c1.9 0 3.4 1.5 3.4 3.3v.1c0 .4-.2.6-.7.6H4.3z"></path><path class="st1" d="M-192.4 424.4s40.3-13.3 6.9-28.2c0 0 39.8 14.9-6.9 28.2"></path><path class="st1" d="M-174.1 403.1c1.5 1.5 2.3 3.6 2.3 5.7-.2 4.9-5.8 9-11.1 11.8 8.3-3.3 12.6-6.9 12.8-10.7 0-2.4-1.7-4.8-4-6.8m-18.3 21.7c-.2 0-.4-.2-.4-.4s.1-.4.3-.4c.2-.1 19.4-6.5 19.8-15.1.2-4.2-4.1-8.3-13-12.3-.2-.1-.3-.4-.2-.6.1-.2.3-.3.5-.2.7.3 16.4 6.2 16.1 14.3-.2 5.5-8 10.5-23 14.7h-.1"></path><path class="st1" d="M-159.5 414.4s-39.8 14.3-6.6 28.6c0 0-39.6-14.1 6.6-28.6M-161.7 406.6c.8 1.7.1 3.7-1.6 4.5-.1.1-.3.1-.5.2-1.8.7-3.3-.9-3.7-2.1-.4-1.9 1.7-3.1 3.9-3.5.8-.2 1.6.2 1.9.9"></path><path class="st1" d="M-168.9 418.3c-8.3 3.6-12.5 7.3-12.6 11.2 0 2.5 1.7 4.8 4 6.8-1.5-1.5-2.3-3.6-2.3-5.7.1-5.1 5.6-9.3 10.9-12.3m2.8 25.1h-.1c-.7-.2-16.3-5.9-16.1-14 .1-5.6 7.7-10.8 22.7-15.5.2-.1.5 0 .5.3.1.2 0 .5-.3.6-.2.1-19.2 7-19.5 15.7-.1 4.2 4.2 8.3 12.9 12 .2 0 .4.2.4.4-.1.3-.3.5-.5.5z"></path>
                          </svg>